<svg xmlns="http://www.w3.org/2000/svg" xmlns:xlink="http://www.w3.org/1999/xlink" width="1507.308" height="547.318" viewBox="0 0 1507.308 547.318">
  <defs>
    <linearGradient id="linear-gradient" x1="1.453" y1="1.34" x2="0.197" y2="0.26" gradientUnits="objectBoundingBox">
      <stop offset="0" stop-color="#002b2c" stop-opacity="0.4"/>
      <stop offset="1" stop-color="#003839" stop-opacity="0"/>
    </linearGradient>
    <linearGradient id="linear-gradient-2" x1="0.047" y1="0.501" x2="0.605" y2="0.481" gradientUnits="objectBoundingBox">
      <stop offset="0" stop-color="#002b2c" stop-opacity="0.4"/>
      <stop offset="1" stop-color="#004446" stop-opacity="0"/>
    </linearGradient>
    <linearGradient id="linear-gradient-3" x1="0.995" y1="0.5" x2="0.683" y2="0.5" xlink:href="#linear-gradient-2"/>
  </defs>
  <g id="Group_9" data-name="Group 9" transform="translate(0.5 0.645)">
    <g id="Group_7" data-name="Group 7">
      <path id="Path_39" data-name="Path 39" d="M554.263,73.11V185.918c0,15.385,4.143,29.354,24.537,29.354,19.871,0,23.861-13.384,23.861-29.354V73.11h48.357V184.272c0,40.549-20.417,66.147-73.071,66.147-52.31,0-71.7-25.866-71.7-66.238V73.11Z" fill="#0baba0"/>
      <path id="Path_40" data-name="Path 40" d="M677.4,155.534c0-27.557-.167-35.69-.419-41.717h45.532a118.871,118.871,0,0,1,1.181,14.93c5.785-9.288,17.78-17.739,36.351-17.739,27.489,0,41.155,18.555,41.155,47.522v88.633H754.653v-80.9c0-12.641-2.783-20.207-14.438-20.207-10.677,0-16.264,5.766-16.264,24.308v76.8H677.4Z" fill="#0baba0"/>
      <path id="Path_41" data-name="Path 41" d="M828.9,113.817h46.55V247.163H828.9Z" fill="#0baba0"/>
      <path id="Path_42" data-name="Path 42" d="M659.138,404.4c-4.754,34.3-26.8,61.07-74.444,61.07-58.8,0-78.445-41.056-78.445-89.938,0-49.824,25.125-90.463,80.148-90.463,52.927,0,70.543,33.411,71.9,60.2H611.216c-2.5-13.231-6.81-24.98-25.555-24.98-22.441,0-29.669,23.112-29.669,55.073,0,32.374,7.3,54.869,29.732,54.869,18.875,0,23.9-13.949,26.163-25.835Z" fill="#91c544"/>
      <path id="Path_43" data-name="Path 43" d="M678.887,374.14c0-22.485,0-37.31-.419-45.274h45.353a225.447,225.447,0,0,1,.84,23.887c4.424-12.859,16.069-26.369,38.955-26.369v44.037c-28.119-.583-38.18,7.5-38.18,35.492v56.3H678.887Z" fill="#91c544"/>
      <path id="Path_44" data-name="Path 44" d="M822.347,405.117c-.088,15.143,4.817,27.917,19.432,27.917,11.723,0,15.317-6.948,17.1-12.987H903.5c-5.347,20.186-20.022,44.809-62.917,44.809-47.81,0-65.218-31.354-65.218-69.2,0-33.774,17.057-69.6,66.563-69.6,48.565,0,63.185,33.216,63.185,67.952,0,1.318-.164,9.626-.33,11.108Zm36.7-25.754c-.33-12.594-4.06-22.935-17.8-22.935-14.285,0-18.236,11.111-18.566,22.935Z" fill="#91c544"/>
      <path id="Path_45" data-name="Path 45" d="M1041.784,423.93c0,10.862.508,29.438,1.868,38.281h-40.559c-1.194-3.366-1.959-10.43-2.391-14.105-7.735,11.062-20.56,16.75-37.51,16.75-30.562,0-44.3-19.1-44.3-41.222,0-23.5,14.787-44.438,63.055-44.438h14.49v-9.521c0-9.439-3.126-15.206-13.8-15.206-11.632,0-14.238,6.378-15.075,14.93H923.8c1.271-21.213,14.708-43.342,59.881-43.342,39.8,0,58.1,14.336,58.1,45.584Zm-44.518-20.555H985.573c-17.13,0-20.751,7.915-20.751,15.871,0,7.777,4.474,13.821,14.251,13.821,15.377,0,18.193-10.552,18.193-26.272Z" fill="#91c544"/>
      <path id="Path_46" data-name="Path 46" d="M1055.533,328.866h17.335V294.512h46.206v34.354h21.45v32.639h-21.45v58.586c0,8.284,2.034,11.577,12.175,11.577a39.8,39.8,0,0,0,6.656-.419v29.6c-7.92,2.557-20.053,3.077-26.132,3.077-30.428,0-38.9-11.376-38.9-37.523v-64.9h-17.335Z" fill="#91c544"/>
      <path id="Path_47" data-name="Path 47" d="M1158.3,328.866h46.549V462.211H1158.3Z" fill="#91c544"/>
      <path id="Path_48" data-name="Path 48" d="M1361.345,393.8c0,37.657-18.366,71.217-68.241,71.217-50.05,0-66.959-34.509-66.959-70.455,0-29.414,15.7-68.508,68.647-68.508C1345.835,326.057,1361.345,362.218,1361.345,393.8Zm-87.517.372c0,27.44,6.562,38.934,20.545,38.934,12.994,0,19.452-11.853,19.452-38.783,0-25.765-5.977-36.182-20.2-36.182C1280.658,358.144,1273.828,369.167,1273.828,394.175Z" fill="#91c544"/>
      <path id="Path_49" data-name="Path 49" d="M1383.008,373.446c0-27.557-.166-35.69-.419-41.716h45.532a118.839,118.839,0,0,1,1.181,14.929c5.785-9.288,17.78-17.739,36.351-17.739,27.489,0,41.155,18.556,41.155,47.522v88.633h-46.549v-80.9c0-12.641-2.783-20.207-14.438-20.207-10.677,0-16.264,5.766-16.264,24.308v76.8h-46.549Z" fill="#91c544"/>
      <circle id="Ellipse_3" data-name="Ellipse 3" cx="23.275" cy="23.275" r="23.275" transform="translate(825.454 65.033) rotate(-9.285)" fill="#0baba0"/>
    </g>
    <path id="Path_50" data-name="Path 50" d="M1207.5,294.512a25.922,25.922,0,1,1-25.922-25.923A25.923,25.923,0,0,1,1207.5,294.512Z" fill="#91c544"/>
    <g id="Group_8" data-name="Group 8">
      <path id="Union_1" data-name="Union 1" d="M0,268.738A277.57,277.57,0,0,1,208.253,0V173.867h0l0,94.528c0,37.886,29.91,69.316,69.151,69.327a69.368,69.368,0,0,0,68.892-61.471c.011.643.048,1.278.048,1.923A108.493,108.493,0,0,1,237.845,386.67a109.684,109.684,0,0,1-50.4-12c-28.413-23.886-46.52-59.063-48.829-98.509-.159-2.734-.212-5.316-.212-8.09l.005-32.783,0,.008v-120.8A207.129,207.129,0,0,0,69.772,268.738c0,114.69,92.975,207.664,207.663,207.664a206.97,206.97,0,0,0,144.926-58.954c.572-.557,1.116-1.142,1.668-1.718l49.345,49.345c-.342.341-.656.708-1,1.048a276.53,276.53,0,0,1-194.939,80.05C124.212,546.173,0,421.962,0,268.738Z" fill="#0baba0" stroke="rgba(0,0,0,0)" stroke-miterlimit="10" stroke-width="1"/>
      <path id="Path_52" data-name="Path 52" d="M138.414,235.29,138.4,268c0,2.774.066,5.5.226,8.235,2.309,39.446,20.351,74.515,48.764,98.4a110.836,110.836,0,0,0,50.661,12.137A108.29,108.29,0,0,0,346.325,278.3c0-.646-.02-1.326-.032-1.968a69.256,69.256,0,0,1-138.067-7.883l.03-94.529A108.634,108.634,0,0,0,138.414,235.29Z" fill="url(#linear-gradient)"/>
      <path id="Path_53" data-name="Path 53" d="M416.391,28.706A275.707,275.707,0,0,0,346.542.039v262.82c0,1.821.005,3.609.005,5.458s.039,3.632-.05,5.552c-.044.933-.115,1.579-.206,2.383.011.643.048,1.278.048,1.924A108.493,108.493,0,0,1,237.845,386.67a110,110,0,0,1-50.476-12.044,139.265,139.265,0,0,0,229.008-98.494c0-.076.011-.152.015-.229V159.692h0Z" fill="#15ab9f"/>
      <path id="Path_55" data-name="Path 55" d="M416.392,28.707h0v85.927c2.61,2.358,5.136,4.806,7.622,7.294l49.36-49.36A278.512,278.512,0,0,0,416.392,28.707Z" fill="#15ab9f"/>
      <path id="Path_56" data-name="Path 56" d="M416.382,28.7h0v85.926c2.61,2.359,5.136,4.807,7.622,7.295l49.36-49.36A278.5,278.5,0,0,0,416.382,28.7Z" fill="url(#linear-gradient-2)"/>
      <path id="Path_57" data-name="Path 57" d="M82.843,196.059a207.948,207.948,0,0,1,55.56-81.566V28.614a279.955,279.955,0,0,0-106.948,111.6l0,55.869Z" fill="url(#linear-gradient-3)"/>
    </g>
  </g>
</svg>
